<svg width="34" height="34" viewBox="0 0 34 34" fill="none" xmlns="http://www.w3.org/2000/svg">
<g clip-path="url(#clip0_206_32)">
<path d="M28.968 28.9731H23.9326V21.0851C23.9326 19.2032 23.8935 16.7824 21.3078 16.7824C18.683 16.7824 18.2818 18.8292 18.2818 20.9457V28.9731H13.2481V12.75H18.0829V14.96H18.1492C18.8241 13.685 20.468 12.342 22.9228 12.342C28.0245 12.342 28.968 15.6978 28.968 20.0685V28.9731ZM7.5599 10.5298C5.9381 10.5298 4.6359 9.2191 4.6359 7.6058C4.6359 5.9925 5.9398 4.6818 7.5599 4.6818C8.33539 4.6818 9.07912 4.98986 9.62748 5.53822C10.1758 6.08658 10.4839 6.83031 10.4839 7.6058C10.4839 8.38129 10.1758 9.12502 9.62748 9.67338C9.07912 10.2217 8.33539 10.5298 7.5599 10.5298ZM10.0827 28.9748H5.0337V12.75H10.0827V28.9731V28.9748ZM31.4857 0H2.5092C1.122 0 0 1.0965 0 2.448V31.552C0 32.9035 1.122 34 2.5092 34H31.4806C32.8661 34 34 32.9052 34 31.552V2.448C34 1.0982 32.8661 0 31.4806 0H31.4857Z" fill="#323232"/>
</g>
<defs>
<clipPath id="clip0_206_32">
<rect width="34" height="34" fill="white"/>
</clipPath>
</defs>
</svg>
