<svg width="34" height="35" viewBox="0 0 34 35" fill="none" xmlns="http://www.w3.org/2000/svg">
<path d="M30.3571 0.25H3.64286C1.6317 0.25 0 1.8817 0 3.89286V30.6071C0 32.6183 1.6317 34.25 3.64286 34.25H30.3571C32.3683 34.25 34 32.6183 34 30.6071V3.89286C34 1.8817 32.3683 0.25 30.3571 0.25ZM26.646 12.3018C26.6612 12.5143 26.6612 12.7344 26.6612 12.9469C26.6612 19.5268 21.6522 27.1085 12.4996 27.1085C9.67634 27.1085 7.05804 26.2888 4.85714 24.8772C5.25938 24.9228 5.64643 24.9379 6.05625 24.9379C8.38616 24.9379 10.5263 24.1487 12.2339 22.8129C10.0482 22.7674 8.21161 21.333 7.5817 19.3598C8.34821 19.4737 9.03884 19.4737 9.82813 19.2688C7.55134 18.8058 5.84375 16.8022 5.84375 14.3812V14.3205C6.50402 14.6924 7.27813 14.9201 8.09018 14.9504C7.40747 14.4963 6.8478 13.8803 6.46112 13.1572C6.07443 12.4342 5.87276 11.6266 5.87411 10.8067C5.87411 9.8808 6.11696 9.0308 6.54955 8.29464C9.00089 11.3152 12.6817 13.2884 16.8103 13.5009C16.1045 10.1237 18.6317 7.38393 21.6674 7.38393C23.1018 7.38393 24.392 7.98348 25.3027 8.95491C26.4259 8.74241 27.5036 8.325 28.4598 7.7558C28.0879 8.90937 27.3063 9.8808 26.2741 10.4955C27.2759 10.3893 28.2473 10.1085 29.1429 9.72143C28.4674 10.7156 27.6174 11.596 26.646 12.3018Z" fill="#323232"/>
</svg>
